<?xml version="1.0" standalone="no"?><!DOCTYPE svg PUBLIC "-//W3C//DTD SVG 1.1//EN" "http://www.w3.org/Graphics/SVG/1.1/DTD/svg11.dtd"><svg t="1773947497894" class="icon" viewBox="0 0 1129 1024" version="1.1" xmlns="http://www.w3.org/2000/svg" p-id="5889" xmlns:xlink="http://www.w3.org/1999/xlink" width="220.5078125" height="200"><path d="M534.30663162 141.21142578c48.22326216 0 94.89251824 9.17681444 139.98050447 27.30688532 46.29302302 18.69169391 87.23154037 45.88407362 122.85917475 81.35358118 0.17993747 0.21810623 36.48915296 35.57310746 108.91128832 106.38670987V215.42203159c0-10.19646056 3.6532777-19.02975822 10.89440053-26.28178672 7.29019655-7.2520285 16.04170491-10.87804238 26.30904983-10.87804311 10.25643997 0 18.99159017 3.62601388 26.28723991 10.87804311 7.25748098 7.2520285 10.89440053 16.08532614 10.89440053 26.28178671V437.83574204c0 10.30551368-3.63691957 19.02975822-10.89440053 26.28178671-7.29564975 7.2520285-16.03079922 10.88349487-26.28723991 10.88349487h-223.06802846c-10.25643997 0-19.00794759-3.62601388-26.29814487-10.87804239-7.2520285-7.2520285-10.88349487-15.97627302-10.88349558-26.28723919 0-10.19646056 3.63691957-18.92070582 10.88349558-26.17273359 7.29019655-7.2520285 16.04170491-10.87804238 26.29814487-10.87804238h125.46554253c-53.8285889-52.2309616-87.51507848-84.97414259-101.06492123-98.57305906-28.86634457-28.66459648-61.65314611-50.41522877-98.45855274-65.14829625-35.42043311-14.504057-72.70567348-21.64157918-111.7957417-21.64157918-39.10097392 0-76.38621428 7.14297537-111.8066474 21.64703166-36.98534411 14.72216251-69.80486193 36.478248-98.46945841 65.14284377-28.63733266 28.66459648-50.4043231 61.41322923-65.33368619 98.23499402-14.55313072 35.34954876-21.78880107 72.51483033-21.78880106 111.59944681 0 38.97556265 7.23567035 76.14084494 21.78880106 111.49039299 14.9293638 36.82176479 36.69635352 69.57039827 65.33368619 98.12048843 28.66459648 28.77910208 61.48411358 50.52973436 98.47491089 65.14829622 35.41498063 14.61310939 72.70022101 21.75608477 111.80119491 21.7560855 39.09552143 0 76.37530861-7.14297537 111.7957417-21.7560855 36.80540664-14.61310939 69.59220889-36.36919489 98.45855275-65.14829622 32.137936-32.06159918 55.5734381-69.00332204 70.29560061-110.92331748 3.27159142-9.62938507 9.59121628-16.65240166 18.86617963-20.95999736 9.29677323-4.3075957 18.77348393-4.87467193 28.46284767-1.70122794 9.70572188 3.51150829 16.77781292 9.97290185 21.18355607 19.14971702 4.47662822 9.29132076 4.95646123 18.8116527 1.47221674 28.44103702-8.90963447 25.26214058-20.95454488 50.07716374-36.16199431 74.21060582-15.21290118 24.13344133-32.39966349 45.54600933-51.56573793 64.24315643-35.62763366 35.57310746-76.56615175 62.7654872-122.85917475 81.46263357C629.19369738 873.70990722 582.52989376 882.77221608 534.30663162 882.77221608c-48.22326216 0-94.89251824-9.06230884-139.98050448-27.19237974-46.29302302-18.69714638-87.24244605-45.88952683-122.85917404-81.46263357-35.60582304-35.46405435-62.84727723-76.36440367-81.62621361-122.48294169C171.6506892 606.65532727 162.54475911 560.08421934 162.54475911 512.04634784c0-48.14692461 9.10047761-94.71803325 27.29598038-139.69696708 18.77893641-46.11853803 45.97676932-86.90438173 81.62621361-122.48294096 35.61127625-35.46405435 76.56615175-62.6509816 122.85917404-81.4626343C439.41956656 150.27373462 486.08337018 141.21142578 534.30663162 141.21142578z" p-id="5890"></path></svg>